<svg width="121" height="39" viewBox="0 0 121 39" fill="none" xmlns="http://www.w3.org/2000/svg">
<g clip-path="url(#clip0_246_3775)">
<path d="M17.0313 38.0382V38.5191H0V38.0382C5.84439 38.0382 8.19186 31.2898 8.19186 24.2047H8.67755C8.67755 31.1776 10.7012 38.0382 17.0313 38.0382ZM26.8421 39H26.3564L8.19186 5.67448C6.05486 1.93958 4.3064 1.07398 2.78459 0.977806V0.496918H18.3427L31.8123 25.8878L26.8421 39.016V39ZM51.3853 38.0382V38.5191H34.7426V38.0382C37.3005 38.0382 37.5272 37.1726 37.5272 33.5018V0.480888H50.8349V0.961776C48.1636 0.961776 48.277 1.66708 48.277 4.95314V33.4858C48.277 37.1566 48.7141 38.0222 51.3853 38.0222V38.0382Z" fill="white"/>
<path d="M80.5588 34.5758C80.5588 34.5758 77.8227 38.6313 69.2585 39V38.4069C74.2287 37.5894 75.2648 31.0012 69.0966 26.529L60.6943 21.2873C52.9395 16.4784 51.0292 9.89026 55.6756 4.10358C55.6756 4.10358 58.4601 0.368681 66.5387 0.0480888V0.593095C61.5685 1.34649 60.5324 7.29347 67.1377 11.5573L75.54 17.0715C82.7443 21.7682 84.6547 28.693 80.5588 34.5758ZM67.0244 38.471V39.016C57.3107 38.8076 53.49 36.2589 53.49 36.2589V25.8878H53.9757C54.8499 29.3983 59.2211 37.7176 67.0244 38.471ZM68.7728 0.545006V0C77.2885 0.208385 80.5588 2.48459 80.5588 2.48459V11.5573H80.0731C79.0369 7.82244 76.5762 1.1381 68.7728 0.528977V0.545006Z" fill="white"/>
<path d="M121 38.0863V38.5191H101.896V38.0863C106.268 38.0863 102.981 31.7707 102.981 31.7707L101.233 28.0358H90.5314C89.4467 30.5203 90.4181 38.0863 96.9749 38.0863V38.5191H81.2549V38.0863C82.89 37.9741 85.9498 37.4932 90.2562 27.5549H101.006L95.3235 14.8594L101.087 0.480888H101.362C115.172 31.8187 116.095 33.598 116.095 33.598C118.054 37.926 119.915 37.9741 121 38.0863Z" fill="white"/>
</g>
<defs>
<clipPath id="clip0_246_3775">
<rect width="121" height="39" fill="white"/>
</clipPath>
</defs>
</svg>
